<?xml version="1.0" encoding="UTF-8" standalone="no"?>
<!DOCTYPE svg PUBLIC "-//W3C//DTD SVG 1.1//EN" "http://www.w3.org/Graphics/SVG/1.1/DTD/svg11.dtd">
<svg width="100%" height="100%" viewBox="0 0 2559 917" version="1.1" xmlns="http://www.w3.org/2000/svg" xmlns:xlink="http://www.w3.org/1999/xlink" xml:space="preserve" xmlns:serif="http://www.serif.com/" style="fill-rule:evenodd;clip-rule:evenodd;stroke-linejoin:round;stroke-miterlimit:2;">
    <g transform="matrix(1,0,0,1,-2942.88,0)">
        <g transform="matrix(1,0,0,1,2942.88,0)">
            <rect id="LIQUID" x="0" y="0" width="2559" height="917" style="fill:none;"/>
            <clipPath id="_clip1">
                <rect id="LIQUID1" serif:id="LIQUID" x="0" y="0" width="2559" height="917"/>
            </clipPath>
            <g clip-path="url(#_clip1)">
                <g transform="matrix(4.16667,0,0,4.16667,-0.00104165,58.3334)">
                    <g transform="matrix(1,0,0,1,1.13687e-13,-14.288)">
                        <path d="M146.97,0.288C137.909,0.288 130.584,7.634 130.584,16.704C130.584,25.748 137.909,33.082 146.97,33.082C156.014,33.082 163.357,25.748 163.357,16.704C163.357,7.634 156.014,0.288 146.97,0.288Z" style="fill:rgb(59,32,168);fill-rule:nonzero;"/>
                    </g>
                    <g transform="matrix(1,0,0,1,1.13687e-13,-14.288)">
                        <path d="M111.029,69.254L131.504,42.301C132.551,40.923 132.638,39.042 131.722,37.574L123.026,23.619C122.259,22.389 120.908,21.645 119.458,21.655L81.923,21.918L61.344,21.902C59.733,21.901 59.017,23.927 60.271,24.938L66.038,29.589C66.849,30.243 67.809,30.686 68.833,30.879L104.578,37.613L60.362,85.133L2.166,93.399C0.151,93.685 -0.708,96.12 0.679,97.609L6.362,103.703C7.487,104.91 9.07,105.583 10.719,105.555L66.899,104.633C68.98,104.599 71.014,104.01 72.791,102.928L86.252,94.731L114.662,117.28C115.781,118.168 116.513,119.454 116.705,120.87L122.113,160.688C122.368,162.566 123.971,163.966 125.866,163.966L128.759,163.966C130.845,163.966 132.539,162.279 132.547,160.193L132.712,116.004C132.721,113.724 131.991,111.502 130.632,109.671L105.846,76.262L111.029,69.254Z" style="fill:rgb(59,32,168);fill-rule:nonzero;"/>
                    </g>
                    <g transform="matrix(1,0,0,1,1.13687e-13,-14.288)">
                        <path d="M254.541,58.635C254.541,50.503 248.183,45.476 239.903,45.476L217.725,45.476L217.725,72.09L239.903,72.09C248.183,72.09 254.541,67.063 254.541,58.635ZM252.471,125.614L233.102,90.572L217.725,90.572L217.725,125.614L196.729,125.614L196.729,26.994L242.861,26.994C263.412,26.994 276.128,40.449 276.128,58.783C276.128,76.082 265.038,85.545 254.393,88.058L276.72,125.614L252.471,125.614Z" style="fill:rgb(0,79,90);fill-rule:nonzero;"/>
                    </g>
                    <g transform="matrix(1,0,0,1,1.13687e-13,-14.288)">
                        <path d="M291.796,125.614L291.796,26.994L361.585,26.994L361.585,45.476L312.792,45.476L312.792,66.176L360.55,66.176L360.55,84.658L312.792,84.658L312.792,107.132L361.585,107.132L361.585,125.614L291.796,125.614Z" style="fill:rgb(0,79,90);fill-rule:nonzero;"/>
                    </g>
                    <g transform="matrix(1,0,0,1,1.13687e-13,-14.288)">
                        <path d="M435.805,58.783C435.805,50.503 429.447,45.476 421.167,45.476L398.988,45.476L398.988,71.942L421.167,71.942C429.447,71.942 435.805,66.915 435.805,58.783ZM377.993,125.614L377.993,26.994L424.124,26.994C445.563,26.994 457.244,41.484 457.244,58.783C457.244,75.934 445.415,90.424 424.124,90.424L398.988,90.424L398.988,125.614L377.993,125.614Z" style="fill:rgb(0,79,90);fill-rule:nonzero;"/>
                    </g>
                    <g transform="matrix(1,0,0,1,1.13687e-13,-14.288)">
                        <path d="M469.513,125.614L469.513,26.994L490.657,26.994L490.657,107.132L532.353,107.132L532.353,125.614L469.513,125.614Z" style="fill:rgb(0,79,90);fill-rule:nonzero;"/>
                    </g>
                    <g transform="matrix(1,0,0,1,1.13687e-13,-14.288)">
                        <path d="M555.268,125.614L555.268,85.249L517.417,26.994L541.37,26.994L565.766,66.471L590.162,26.994L613.967,26.994L576.264,85.249L576.264,125.614L555.268,125.614Z" style="fill:rgb(0,79,90);fill-rule:nonzero;"/>
                    </g>
                    <g transform="matrix(0.24,0,0,0.24,-157.678,-489.987)">
                        <g transform="matrix(239.155,0,0,239.155,2348.54,2779)">
                        </g>
                        <text x="1471.56px" y="2779px" style="font-family:'Arial-BoldMT', 'Arial', sans-serif;font-weight:700;font-size:239.155px;fill:rgb(59,32,168);">SHIELD</text>
                    </g>
                </g>
            </g>
        </g>
    </g>
</svg>
